<svg width="120" height="120" viewBox="0 0 120 120" fill="none" xmlns="http://www.w3.org/2000/svg">
<path d="M44.7051 73.767V101.747H60.4951V73.767H72.2851L74.7351 60.437H60.5051V55.6971C60.5051 48.6571 63.2651 45.9471 70.4151 45.9471C72.6451 45.9471 74.4351 46.017 75.4551 46.117V34.047C73.4951 33.497 68.7351 32.957 65.9751 32.957C51.4051 32.957 44.7051 39.847 44.7051 54.687V60.427H35.7151V73.757H44.7051V73.767Z" fill="white"/>
<path d="M84.5051 104.747H34.7951C23.8451 104.747 14.9551 95.8669 14.9551 84.9069V35.1969C14.9551 24.2469 23.8351 15.3569 34.7951 15.3569H84.5051C95.4551 15.3569 104.345 24.2369 104.345 35.1969V84.9069C104.335 95.8669 95.4551 104.747 84.5051 104.747Z" stroke="white" stroke-width="7" stroke-miterlimit="10" stroke-linecap="round" stroke-linejoin="round"/>
</svg>
