<svg width="120" height="120" viewBox="0 0 120 120" fill="none" xmlns="http://www.w3.org/2000/svg">
<path d="M59.915 77.8271C69.7236 77.8271 77.675 69.8757 77.675 60.0671C77.675 50.2586 69.7236 42.3071 59.915 42.3071C50.1064 42.3071 42.155 50.2586 42.155 60.0671C42.155 69.8757 50.1064 77.8271 59.915 77.8271Z" stroke="#2A2324" stroke-width="7"/>
<path d="M84.045 40.1968C86.3923 40.1968 88.295 38.294 88.295 35.9468C88.295 33.5996 86.3923 31.6968 84.045 31.6968C81.6978 31.6968 79.795 33.5996 79.795 35.9468C79.795 38.294 81.6978 40.1968 84.045 40.1968Z" fill="#2A2324"/>
<path d="M84.7651 104.747H35.0651C24.1151 104.747 15.2251 95.8669 15.2251 84.9069V35.1969C15.2251 24.2469 24.1051 15.3569 35.0651 15.3569H84.7751C95.7251 15.3569 104.615 24.2369 104.615 35.1969V84.9069C104.605 95.8669 95.7251 104.747 84.7651 104.747Z" stroke="#2A2324" stroke-width="7" stroke-miterlimit="10" stroke-linecap="round" stroke-linejoin="round"/>
</svg>
