<svg width="304" height="542" viewBox="0 0 304 542" fill="none" xmlns="http://www.w3.org/2000/svg">
<path d="M137.727 281.618C142.03 277.864 145.358 276.188 150.467 281.819C157.191 289.227 158.098 290.769 151.644 298.747C151.341 299.149 151.072 299.585 150.602 300.322C158.535 306.725 171.175 308.836 171.377 323.786C165.696 321.607 160.351 319.563 154.938 317.485C162.368 329.283 158.703 342.088 157.964 354.658C157.325 366.055 156.787 377.451 155.812 388.848C154.569 403.128 153.795 417.541 151.241 431.586C148.585 446.133 143.979 460.346 140.349 474.726C136.651 489.307 133.188 503.921 129.423 518.469C128.045 523.732 126.364 528.961 124.381 534.056C123.574 536.167 121.961 538.179 120.213 539.687C119.036 540.693 117.053 540.726 115.405 541.229C114.867 539.352 113.456 537.24 113.893 535.665C118.599 519.106 124.213 502.815 128.348 486.122C134.399 461.62 140.887 437.05 144.383 412.111C147.442 390.122 148.753 367.63 145.324 345.272C143.878 335.853 143.408 326.3 142.937 316.747C142.567 309.038 139.307 305.82 131.44 306.457C130.432 306.524 129.457 306.792 127.608 307.127C129.659 308.635 131.272 309.507 132.483 310.781C133.693 312.054 135.609 314.2 135.239 315.105C134.6 316.613 132.449 318.188 130.734 318.49C124.448 319.496 121.255 323.686 117.691 329.786C125.995 328.68 131.239 332.099 135.508 337.094C130.432 340.814 125.389 344.133 120.784 348.021C119.103 349.429 117.59 352.11 117.59 354.222C117.658 363.775 118.532 373.328 118.633 382.848C118.7 390.424 116.078 396.993 108.917 400.781C107.707 401.418 105.354 401.519 104.379 400.748C100.95 398.033 97.7567 394.949 94.6976 391.798C89.7896 386.736 89.6215 384.96 92.8823 378.625C94.7648 374.971 96.9835 371.518 98.6307 367.764C99.7401 365.25 100.076 362.368 101.118 358.245C90.63 361.798 83.7386 367.999 75.3009 373.932C77.5532 375.574 78.9315 376.915 80.6123 377.72C84.9488 379.865 87.5373 384.826 85.8228 388.479C85.3522 389.451 84.1084 391.027 83.6042 390.893C79.1332 389.686 78.8306 393.708 77.049 396.021C75.1328 394.848 73.3175 393.742 71.4686 392.636C71.0988 393.206 70.7627 393.541 70.8299 393.708C73.1494 400.982 72.8469 400.781 65.384 400.58C53.7864 400.245 48.6094 391.195 41.7853 384.39C39.9028 382.513 38.7262 379.865 37.4824 377.451C34.9947 372.524 31.465 368.032 32.6752 361.764C33.1122 359.418 31.4314 356.636 30.2884 352.479C21.6826 362.736 12.7406 369.507 0 360.524C16.7746 351.943 27.5655 336.792 40.5751 323.585C33.3475 316.144 24.1366 311.619 18.9597 301.026C26.12 304.211 31.8684 306.758 37.5832 309.306C36.1041 306.356 33.9526 303.842 33.7846 301.261C33.6165 298.579 34.793 295.227 36.5075 293.082C42.0878 286.177 48.2733 279.741 54.0217 272.97C55.2655 271.529 55.7025 269.417 56.5093 267.607C57.7867 268.546 59.0978 269.417 60.2743 270.456C61.6526 271.629 62.7619 273.339 64.3083 274.076C68.4431 275.954 72.8133 277.328 77.0153 279.037C80.9485 280.646 81.5199 283.16 79.0323 286.713C76.3094 290.602 72.9814 294.389 71.5358 298.781C69.1827 305.887 66.09 312.289 61.1147 317.954C59.7365 319.496 58.4254 322.647 59.1314 324.121C60.8794 327.842 59.0641 328.11 56.3412 328.714C54.7276 329.082 53.0132 329.92 51.9374 331.094C51.6013 331.462 52.8115 334.244 53.8536 334.68C55.1982 335.25 57.3833 335.116 58.6944 334.378C68.275 329.116 77.7549 323.619 87.2684 318.188C88.9492 317.216 90.5292 316.043 93.1849 314.3C86.9322 312.49 85.6211 308.267 85.3186 303.708C85.0161 298.646 84.848 293.518 85.1841 288.423C85.6884 280.948 86.8986 273.507 87.302 266.032C87.3692 264.59 85.4195 261.942 84.0412 261.674C79.1332 260.702 74.0571 260.501 68.9138 259.998C66.7623 264.791 66.7623 264.758 60.9467 266.132C59.4675 266.467 58.0556 267.171 56.6437 267.708C52.1055 269.484 47.5337 271.16 43.0627 273.071C36.6083 275.786 30.154 278.468 23.8005 281.417C16.4385 284.87 12.5389 284.032 5.88288 276.389C12.8751 273.842 19.3631 271.026 26.0864 269.082C37.9194 265.629 50.2902 263.685 61.6862 259.227C69.8886 256.009 78.36 255.238 86.5288 252.791C87.9407 252.356 89.6887 250.244 89.8232 248.769C90.9326 237.071 91.5713 225.339 92.6134 213.607C92.9495 209.718 92.6134 206.534 88.613 204.758C86.7641 203.92 84.9488 202.947 83.1335 202.009C83.9403 200.97 84.7471 199.931 85.5539 198.892C92.0083 201.942 98.5971 204.724 104.816 208.244C106.295 209.082 107.27 212.4 107.001 214.378C105.926 223.16 104.245 231.909 102.9 240.657C102.396 243.976 102.16 247.294 101.69 251.685C108.111 250.344 113.657 249.54 118.935 247.931C127.406 245.384 134.937 246.49 141.727 252.121C143.038 253.194 144.047 254.635 145.223 255.875C144.988 256.244 144.753 256.579 144.517 256.948C143.105 256.613 141.693 256.21 140.282 255.942C128.482 253.629 117.086 255.775 105.825 259.194C104.816 259.495 103.471 260.97 103.471 261.909C103.337 277.361 103.371 292.814 103.371 309.239C109.959 303.239 117.725 306.624 125.255 307.261C125.625 306.691 125.961 306.155 126.331 305.585C124.179 303.406 122.162 301.026 119.809 299.082C118.397 297.943 116.481 296.937 114.699 296.803C105.959 296.099 106.094 289.06 104.816 283.16C104.648 282.322 105.791 280.747 106.699 280.177C113.288 276.289 119.944 272.501 126.7 268.914C128.751 267.842 132.146 266.4 133.357 267.272C136.281 269.417 140.416 271.529 139.441 276.456C139.071 278.266 138.399 280.009 137.895 281.819C133.928 284.501 129.961 287.183 125.995 289.831C126.163 290.367 126.331 290.937 126.499 291.473C128.28 291.473 130.97 292.211 131.676 291.339C134.029 288.389 135.743 284.87 137.727 281.618ZM60.476 363.876C60.9803 363.976 61.5181 364.077 62.0224 364.211C71.5022 354.222 81.0157 344.233 90.0249 334.747C80.0744 339.507 69.6197 344.501 58.5935 349.798C59.1314 353.921 59.8037 358.881 60.476 363.876ZM63.7704 285.373C62.9636 284.903 62.1232 284.434 61.3164 283.965C54.4923 292.814 47.6682 301.663 40.9112 310.479C45.0797 314.2 48.0379 313.797 50.6936 309.44C52.6098 306.255 55.4672 303.607 57.2152 300.322C59.7365 295.496 61.619 290.367 63.7704 285.373Z" fill="black"/>
<path d="M227.399 176.645C218.861 177.751 210.995 178.254 203.397 179.997C199.195 180.969 196.271 179.964 193.581 177.517C190.455 174.701 187.732 171.416 184.001 167.461C199.7 165.751 214.524 164.142 229.921 162.5C229.383 159.215 228.845 156.165 228.341 153.114C238.527 150.6 242.661 152.545 247.267 161.36C248.006 162.768 249.687 164.411 251.166 164.645C260.915 166.355 269.084 170.176 276.009 177.718C279.673 181.707 285.69 183.55 290.632 186.366C291.472 186.835 292.246 187.506 294.296 188.981C290.935 190.221 288.649 191.729 286.228 191.897C274.093 192.701 262.092 194.143 250.763 198.902C249.116 199.606 247.704 200.813 246.426 202.388C257.049 202.623 265.789 206.88 274.563 211.204C274.597 211.841 274.664 212.511 274.698 213.148C269.756 214.958 264.781 216.701 259.839 218.545C255.368 220.221 250.729 221.595 246.628 223.942C244.914 224.914 244.376 228.031 243.367 230.009C248.712 232.523 253.419 234.4 257.755 236.914C259.402 237.886 261.083 240.232 261.15 241.975C261.184 243.316 258.932 245.093 257.318 246.098C249.217 251.126 242.292 256.657 243.535 267.786C243.972 271.741 243.065 275.864 242.762 279.853C243.233 280.121 243.569 280.456 243.804 280.422C246.964 279.819 250.797 279.987 253.116 278.21C255.268 276.568 251.839 267.182 248.981 264.668C248.309 264.065 247.872 263.16 247.267 262.288C253.788 260.512 263.369 264.299 267.672 269.897C271.336 274.657 275.606 279.048 278.833 284.11C280.278 286.322 279.808 289.774 280.379 293.83C275.437 295.138 270.429 297.015 265.252 297.652C256.881 298.657 248.443 298.858 240.006 299.361C230.526 299.897 222.223 303.719 213.818 307.741C206.322 311.361 198.288 313.942 190.388 316.59C189.144 317.026 186.354 315.92 185.749 314.747C184.001 311.328 182.656 307.573 181.748 303.819C180.908 300.434 181.681 297.786 184.976 295.071C189.917 291.048 193.749 285.652 199.027 279.685C194.153 279.685 190.321 279.45 186.522 279.786C184.539 279.953 182.589 281.663 180.74 281.529C179.227 281.428 176.538 279.45 176.639 278.579C177.244 273.45 178.353 268.489 183.396 265.272C195.497 257.528 207.465 249.584 219.264 241.372C221.08 240.098 221.718 237.182 222.895 235.003C222.424 234.467 221.92 233.931 221.449 233.428C213.146 236.746 204.876 239.998 196.573 243.35C193.749 244.489 191.026 246.232 188.102 246.769C186.555 247.037 183.833 245.696 183.026 244.288C179.866 238.791 180.168 231.752 186.455 227.595C197.414 220.321 208.44 213.115 219.432 205.908C221.214 204.735 223.029 203.662 224.811 202.523C224.609 201.986 224.441 201.45 224.24 200.914C218.189 202.02 211.902 202.388 206.188 204.333C188.707 210.299 171.428 216.869 154.082 223.171C153.914 223.238 153.746 223.338 153.611 223.338C150.149 223.573 146.485 224.545 143.291 223.673C141.812 223.271 146.35 212.679 149.241 211.506C155.359 208.958 161.478 206.176 167.831 204.366C185.211 199.472 202.658 194.746 220.239 190.589C225.248 189.416 227.265 187.439 226.929 182.545C226.761 180.936 227.164 179.226 227.399 176.645ZM206.658 265.942C211.734 268.724 217.617 264.702 219.634 257.227C215.163 260.244 211.028 263.026 206.658 265.942Z" fill="black"/>
<path d="M115.977 92.6342C117.758 91.3604 118.801 90.5894 119.977 89.7515C116.414 85.3939 112.884 81.1369 109.388 76.8799C109.657 76.6117 109.926 76.3771 110.195 76.1089C115.103 79.729 119.977 83.3157 126.028 87.7738C125.356 85.2598 125.121 84.4218 125.053 84.1872C136.18 86.5336 147.341 88.9135 158.468 91.2263C162.435 92.0643 164.754 90.2543 165.494 86.5C168.687 70.4776 172.116 54.4887 174.738 38.3321C175.747 32.131 174.94 25.5946 174.604 19.1924C174.503 17.4829 173.192 15.7733 172.251 14.1644C169.931 10.1755 170.133 6.22022 172.856 2.66712C175.444 -0.718374 178.84 -0.416696 182.571 1.02465C195.749 6.08614 207.951 12.7901 218.978 21.6393C222.944 24.8237 224.356 28.8461 225.13 33.9075C226.474 42.4216 225.667 50.3993 223.55 58.6451C219.717 73.662 216.927 88.9135 213.196 103.964C210.271 115.763 205.901 127.126 198.539 136.914C196.556 139.562 192.353 141.238 188.891 141.942C181.932 143.316 174.738 143.785 167.645 144.489C161.863 145.059 159.846 140.869 157.762 136.646C156.552 134.199 154.737 132.02 153.123 129.774C152.753 129.238 151.913 129.037 151.509 128.5C146.702 121.93 141.189 117.271 132.617 115.159C127.81 113.986 124.246 107.752 120.179 103.763C119.876 103.461 119.641 102.59 119.843 102.355C123.944 97.6956 120.313 95.3493 115.977 92.6342Z" fill="black"/>
<path d="M103.774 60.1536C108.548 60.9916 107.741 64.4776 107.371 67.0586C105.724 78.8576 103.74 90.623 101.959 102.422C100.849 109.897 99.8746 117.372 98.8325 124.847C99.4376 125.115 100.043 125.383 100.648 125.685C105.018 123.037 109.388 120.355 113.758 117.707C114.061 118.009 114.363 118.31 114.699 118.612C113.254 120.288 111.808 121.964 110.363 123.606C105.018 129.573 103.303 136.109 106.194 143.886C108.548 150.221 109.153 156.523 103.135 161.651C101.892 162.691 100.849 164.4 100.513 165.975C99.2022 171.707 95.5381 172.076 90.7309 170.936C80.7132 168.59 76.8809 160.11 71.8384 152.635C65.2496 142.88 67.3675 133.126 71.3342 123.405C75.8388 112.344 80.3434 101.249 85.5203 90.489C88.5122 84.2543 92.9832 78.757 96.6474 72.824C99.1014 68.7681 101.286 64.5447 103.774 60.1536Z" fill="black"/>
<path d="M299.187 101.886C295.153 106.779 291.758 111.238 288.026 115.36C285.236 118.411 282.446 122.366 278.849 123.64C270.815 126.456 264.529 133.997 255.082 132.824C252.158 132.456 248.325 132.187 246.678 130.31C242.375 125.416 238.644 119.919 235.45 114.221C232.559 109.092 230.744 103.36 228.29 97.9637C226.576 94.1425 226.307 90.0531 229.87 87.8072C233.299 85.662 236.862 81.6731 242.14 86.0977C244.291 87.9078 248.628 87.4385 251.956 87.4385C269.403 87.3044 285.236 92.2318 299.187 101.886Z" fill="black"/>
<path d="M272.227 250.512C282.917 249.205 292.397 251.183 300.431 258.289C304.969 262.311 305.238 272.166 300.902 276.255C299.96 277.127 298.448 278.133 297.372 277.965C291.321 276.959 284.799 276.792 280.698 271.16C280.093 270.356 279.925 268.915 280.127 267.875C282.581 255.708 282.614 255.708 272.227 250.512Z" fill="black"/>
<path d="M233.264 346.043C234.374 348.356 235.752 350.602 236.559 353.016C238.677 359.418 240.694 365.887 242.442 372.423C242.711 373.429 241.534 375.675 240.559 376.044C231.079 379.329 221.364 378.96 211.683 377.083C210.573 376.882 209.262 375.172 209.06 373.999C208.926 373.161 210.271 371.653 211.313 371.15C213.128 370.278 215.212 369.91 217.196 369.34C224.121 367.463 229.163 363.105 231.684 356.636C232.827 353.719 231.886 350.032 231.886 346.68C232.323 346.446 232.794 346.245 233.264 346.043Z" fill="#E71F19"/>
<path d="M201.161 334.546C200.724 340.948 200.287 347.786 199.85 354.624C199.211 354.792 198.539 354.926 197.9 355.094C197.194 353.351 195.95 351.641 195.849 349.898C195.715 346.848 196.488 343.798 196.522 340.747C196.555 337.663 196.152 334.613 195.849 330.323C202.606 329.954 210.304 329.283 218.003 329.25C227.213 329.183 236.458 329.451 245.669 329.92C249.434 330.121 252.695 331.395 252.359 336.423C252.056 341.015 252.291 345.675 252.291 350.267C251.417 350.434 250.51 350.569 249.636 350.736C248.93 348.189 247.551 345.608 247.619 343.06C247.787 336.122 246.946 334.647 240.156 334.58C227.516 334.446 214.91 334.546 201.161 334.546Z" fill="#E71F19"/>
<path d="M122.969 357.977C126.163 359.485 128.919 360.692 131.609 362.1C141.088 367.027 141.29 368.469 139.811 380.301C139.172 385.497 135.878 387.005 130.835 385.329C122.969 382.714 119.339 376.513 120.986 368.469C121.692 365.117 122.263 361.765 122.969 357.977Z" fill="black"/>
<path d="M222.675 350.602C222.743 355.194 219.549 359.384 215.918 359.418C211.347 359.451 205.867 354.457 205.8 350.2C205.733 345.708 209.699 341.786 214.271 341.82C219.583 341.853 222.575 344.971 222.675 350.602Z" fill="#E71F19"/>
<path d="M248.292 385.228C248.292 377.518 248.292 370.379 248.292 361.429C250.073 363.574 252.124 364.848 252.225 366.256C252.628 373.362 252.594 380.468 252.494 387.574C252.494 388.245 251.183 389.485 250.477 389.485C241.467 389.519 232.425 389.418 223.415 389.15C222.575 389.116 221.735 387.91 220.827 387.172C229.937 386.535 238.61 385.932 248.292 385.228Z" fill="#E71F19"/>
<path d="M196.017 362.535C202.102 368.837 198.774 376.546 199.076 383.988C203.043 384.558 206.842 385.094 210.674 385.63C210.573 386.368 210.506 387.139 210.405 387.876C206.27 389.083 202.203 388.647 198.202 386.468C194.706 384.558 195.647 381.675 195.916 378.491C196.353 373.228 196.017 367.865 196.017 362.535Z" fill="#E71F19"/>
</svg>
